inDegrees=yes
name=ik_Shooting_orientations
DataType=double
version=3
OpenSimVersion=4.3-2021-08-27-4bc7ad9
endheader
time	pelvis_tilt	pelvis_list	pelvis_rotation	pelvis_tx	pelvis_ty	pelvis_tz	hip_flexion_r	hip_adduction_r	hip_rotation_r	knee_angle_r	knee_angle_r_beta	ankle_angle_r	subtalar_angle_r	mtp_angle_r	hip_flexion_l	hip_adduction_l	hip_rotation_l	knee_angle_l	knee_angle_l_beta	ankle_angle_l	subtalar_angle_l	mtp_angle_l	lumbar_extension	lumbar_bending	lumbar_rotation	arm_flex_r	arm_add_r	arm_rot_r	elbow_flex_r	pro_sup_r	wrist_flex_r	wrist_dev_r	arm_flex_l	arm_add_l	arm_rot_l	elbow_flex_l	pro_sup_l	wrist_flex_l	wrist_dev_l
7.25999999999989	-4.565204918337262	5.641793926846828	-105.986599045119	0	0.9399999999999999	0	36.59746322733798	-10.71664780546631	0	56.08815734516191	0.978923017049717	-5.344815355304919	0	0	36.59746322733798	-10.71664780546631	0	56.08815734516191	0.978923017049717	-5.344815355304919	0	0	-6.333362962818013	-11.26093264165659	5.606753590405036	18.93521949840466	7.227431519817839	45.06625884208226	74.83797125062544	47.43143648498664	0	0	0	-8.496968218324671	0	74.83797125062544	47.43143648498664	0	0
7.269999999999889	-4.542832509790631	5.639955449478829	-105.9790873710388	0	0.9399999999999999	0	36.59947256181301	-10.71605672954157	0	56.08888593085566	0.9789357332689558	-5.344444527991158	0	0	36.59947256181301	-10.71605672954157	0	56.08888593085566	0.9789357332689558	-5.344444527991158	0	0	-6.344787761558355	-11.2703690003592	5.600037175606336	18.56665537417099	7.502125603983114	45.0399123153263	74.83800955791311	47.42984583264681	0	0	0	-8.497757731605766	0	74.83800955791311	47.42984583264681	0	0
7.279999999999889	-4.598639984295279	5.638951630644494	-105.9628602663535	0	0.9399999999999999	0	36.60027517924844	-10.71582339138936	0	56.08917951392826	0.9789408572602007	-5.344298521437132	0	0	36.60027517924844	-10.71582339138936	0	56.08917951392826	0.9789408572602007	-5.344298521437132	0	0	-6.379859210431144	-11.19654656178709	5.594013254263054	18.42160583570881	7.948164962180294	44.84870066456967	74.83802486320508	47.42921648747394	0	0	0	-8.498075123703215	0	74.83802486320508	47.42921648747394	0	0
7.289999999999889	-4.56670650139168	5.625299727981483	-105.9867268887354	0	0.9399999999999999	0	36.60204021425214	-10.71530599022458	0	56.08982088231575	0.9789520512502807	-5.343974217018908	0	0	36.60204021425214	-10.71530599022458	0	56.08982088231575	0.9789520512502807	-5.343974217018908	0	0	-6.372590461584284	-11.26116065538043	5.604747216549771	18.17413605726877	8.543599633478582	44.59257761586122	74.8380585152606	47.42782307972581	0	0	0	-8.498769795302092	0	74.8380585152606	47.42782307972581	0	0
7.299999999999889	-4.549030805579259	5.620614284612795	-105.9898579459812	0	0.9399999999999999	0	36.60436980411374	-10.71462168767882	0	56.09066565806077	0.9789667953684723	-5.343545173707922	0	0	36.60436980411374	-10.71462168767882	0	56.09066565806077	0.9789667953684723	-5.343545173707922	0	0	-6.364051487095693	-11.2822898864691	5.587520000870954	17.90905271754275	9.125069584281787	44.34710755563179	74.83810292902383	47.4259807651075	0	0	0	-8.499685377129904	0	74.83810292902383	47.4259807651075	0	0
7.309999999999889	-4.537093551820655	5.622770354365724	-105.9843891369196	0	0.9399999999999999	0	36.6064021679753	-10.71402573178706	0	56.09140333119658	0.9789796701934957	-5.34317171193099	0	0	36.6064021679753	-10.71402573178706	0	56.09140333119658	0.9789796701934957	-5.34317171193099	0	0	-6.350612228705404	-11.2985674279472	5.564354046870069	17.75225649550566	9.807958287533198	44.00765197017601	74.83814167741436	47.42437568010393	0	0	0	-8.500484745606357	0	74.83814167741436	47.42437568010393	0	0
7.319999999999888	-4.539035890142358	5.637309383493931	-105.9726577610844	0	0.9399999999999999	0	36.60794121834771	-10.71357564497033	0	56.09196290154234	0.9789894365384257	-5.342889856981701	0	0	36.60794121834771	-10.71357564497033	0	56.09196290154234	0.9789894365384257	-5.342889856981701	0	0	-6.331562992955178	-11.27945320237703	5.531772995092211	17.587683453554	10.50518939704223	43.62444880075454	74.83817102198158	47.4231627883288	0	0	0	-8.501090877293171	0	74.83817102198158	47.4231627883288	0	0
7.329999999999888	-4.529310098169999	5.6390291846507	-105.9851355040075	0	0.9399999999999999	0	36.60996519164253	-10.71298269307177	0	56.09269753415913	0.9790022582963812	-5.342518434444784	0	0	36.60996519164253	-10.71298269307177	0	56.09269753415913	0.9790022582963812	-5.342518434444784	0	0	-6.289340279625167	-11.27774095593471	5.517315180892652	17.3334620282455	11.39850982825259	43.28976155251592	74.83820961092216	47.42156535168789	0	0	0	-8.501887065846164	0	74.83820961092216	47.42156535168789	0	0
7.339999999999888	-4.556348777360566	5.651952594910301	-105.9766967216211	0	0.9399999999999999	0	36.61160523891724	-10.71250352270876	0	56.09329385927634	0.979012666133089	-5.342218492473717	0	0	36.61160523891724	-10.71250352270876	0	56.09329385927634	0.979012666133089	-5.342218492473717	0	0	-6.243444613570859	-11.25357861576403	5.482779951297981	17.09323384401807	12.29461696819468	42.9524059237695	74.83824088161874	47.42027372736682	0	0	0	-8.502533093503965	0	74.83824088161874	47.42027372736682	0	0
7.349999999999888	-4.557600903353542	5.653324502250703	-105.9715969628019	0	0.9399999999999999	0	36.61399137968626	-10.71180451307686	0	56.09415931737094	0.9790277712263777	-5.341780750821963	0	0	36.61399137968626	-10.71180451307686	0	56.09415931737094	0.9790277712263777	-5.341780750821963	0	0	-6.227201327072605	-11.25244519804414	5.458607884119812	16.77719588011873	13.14636314472796	42.56632433284609	74.83828637540427	47.41839032181338	0	0	0	-8.503471405807991	0	74.83828637540427	47.41839032181338	0	0
7.359999999999888	-4.565798832269514	5.663345342549024	-105.9607273264013	0	0.9399999999999999	0	36.61582679841928	-10.71126789695539	0	56.09482583046148	0.9790394040743153	-5.341444883071322	0	0	36.61582679841928	-10.71126789695539	0	56.09482583046148	0.9790394040743153	-5.341444883071322	0	0	-6.216903299809773	-11.22376429864631	5.451451836451887	16.34323965601796	14.1025634969893	42.31376469876123	74.83832137057158	47.41694386667015	0	0	0	-8.504193843170656	0	74.83832137057158	47.41694386667015	0	0
7.369999999999887	-4.55090454877791	5.656777600770793	-105.9593141565894	0	0.9399999999999999	0	36.6174106231407	-10.710805881913	0	56.09540175323772	0.979049455822998	-5.341155884065857	0	0	36.6174106231407	-10.710805881913	0	56.09540175323772	0.979049455822998	-5.341155884065857	0	0	-6.176258183332805	-11.21779892644816	5.430481819566646	16.12426231548689	15.02798015193709	41.88148512791983	74.83835156998502	47.41569790272674	0	0	0	-8.504817904199594	0	74.83835156998502	47.41569790272674	0	0
7.379999999999887	-4.536325131866571	5.6392168425775	-105.9697284281825	0	0.9399999999999999	0	36.61962070057611	-10.71015995899568	0	56.09620392208473	0.979063456310535	-5.340751731727692	0	0	36.61962070057611	-10.71015995899568	0	56.09620392208473	0.979063456310535	-5.340751731727692	0	0	-6.144137366461136	-11.24448812660552	5.432605990976042	15.98200325221023	15.77619928672584	41.51316722557227	74.83839370864729	47.41395648896368	0	0	0	-8.505687628872472	0	74.83839370864729	47.41395648896368	0	0
7.389999999999887	-4.540642429788201	5.640424577739847	-105.9696295956175	0	0.9399999999999999	0	36.62185636831484	-10.70950668147372	0	56.09701513679331	0.9790776146781405	-5.340343052968318	0	0	36.62185636831484	-10.70950668147372	0	56.09701513679331	0.9790776146781405	-5.340343052968318	0	0	-6.145478465222506	-11.23380436554061	5.443737405725718	15.88374745776069	16.63204488575834	41.10324201559506	74.83843633524896	47.41219506486164	0	0	0	-8.506567314046283	0	74.83843633524896	47.41219506486164	0	0
7.399999999999887	-4.534260431314129	5.662219970281285	-105.9554214353233	0	0.9399999999999999	0	36.62371985318077	-10.70896337771719	0	56.09769219955447	0.9790894316525655	-5.340003379453639	0	0	36.62371985318077	-10.70896337771719	0	56.09769219955447	0.9790894316525655	-5.340003379453639	0	0	-6.130897871345431	-11.24238989908878	5.433873798183781	15.93371441043824	17.1789932748951	40.71838735759041	74.83847186709589	47.41072946061514	0	0	0	-8.507301316522396	0	74.83847186709589	47.41072946061514	0	0
7.409999999999886	-4.534362537285914	5.656136751225173	-105.9539489535728	0	0.9399999999999999	0	36.62549729904876	-10.70844549896256	0	56.09833807656029	0.9791007043328798	-5.339679687768638	0	0	36.62549729904876	-10.70844549896256	0	56.09833807656029	0.9791007043328798	-5.339679687768638	0	0	-6.142937802774176	-11.2380426798564	5.41945910330812	16.03465674225805	17.7007621205927	40.35507267468999	74.83850575874985	47.40933218862795	0	0	0	-8.508001543355491	0	74.83850575874985	47.40933218862795	0	0
7.419999999999886	-4.522438568448773	5.644689663829519	-105.9587106665582	0	0.9399999999999999	0	36.62719972580483	-10.70795005733631	0	56.09895702499374	0.9791115070209435	-5.339370133879777	0	0	36.62719972580483	-10.70795005733631	0	56.09895702499374	0.9791115070209435	-5.339370133879777	0	0	-6.150972180280714	-11.26169179432388	5.392449691752185	16.16467123487013	18.23728820384703	39.94108720920316	74.83853822064596	47.40799508864774	0	0	0	-8.508672525680831	0	74.83853822064596	47.40799508864774	0	0
7.429999999999886	-4.542421836260504	5.630295474792478	-105.9608281443813	0	0.9399999999999999	0	36.62800075028418	-10.70771887228628	0	56.09925007877829	0.9791166217743694	-5.339225952916966	0	0	36.62800075028418	-10.70771887228628	0	56.09925007877829	0.9791166217743694	-5.339225952916966	0	0	-6.166743551437325	-11.22015384913827	5.393647197058653	16.08695018375631	18.52565978826104	39.78875341442266	74.83855349718598	47.40737018818029	0	4.574771989438455e-36	0	-8.508989686613129	0	74.83855349718598	47.40737018818029	0	4.574771989438455e-36
7.439999999999886	-4.528652650618282	5.621793742356957	-105.9532095763669	0	0.9399999999999999	0	36.62876657385725	-10.70749808501317	0	56.09953048232482	0.9791215157394906	-5.339088289649714	0	0	36.62876657385725	-10.70749808501317	0	56.09953048232482	0.9791215157394906	-5.339088289649714	0	0	-6.183092234558303	-11.24949878093847	5.385517979676666	15.93628580682546	18.60325271779075	39.68662897271245	74.83856810274094	47.4067732726305	0	0	0	-8.509293096368525	0	74.83856810274094	47.4067732726305	0	0
